<svg xmlns="http://www.w3.org/2000/svg" viewBox="0 0 1185 378" width="1185" height="378" role="img" aria-label="Spindle">
<title>Spindle</title>
<path fill="#F2F4F8" d="M120.8 375.4C118.2 374.7 116.8 373.1 115.7 369.6C115.5 368.6 113.4 362.4 111.2 355.8C109 349.2 106.3 341.1 105.3 337.9C104.3 334.6 102.7 330 101.9 327.5C97.2 313.4 96.4 309.5 97.3 306.1C98.9 300.4 102.1 297.1 107.5 295.5C109.2 294.9 114.2 293.2 118.9 291.5C120.7 290.9 124.3 289.6 126.9 288.7C129.5 287.8 133.6 286.4 136 285.5C141.1 283.6 148.8 281.1 149.3 281.1C150.6 281.1 150.7 281.5 150.6 291.7C150.5 302.4 150.4 303.5 147.9 310.6C147.5 311.6 146.5 314.7 145.6 317.5C144.1 322.4 138.1 340.4 129.4 366.9L127.5 372.4L126.6 373.4C125 375.1 122.7 375.9 120.8 375.4ZM495 297.5C494 297.2 493.2 296.7 492.5 295.9C491.3 294.5 491.4 300.9 491.4 223.7C491.4 163 491.3 153.8 491.1 152.4C490.7 149.5 490.8 125.7 491.2 124.5C491.7 123.2 493.2 121.7 494.2 121.4C495.1 121.2 512.1 121 519.6 121.2C526.7 121.3 526.6 121.3 527.9 122.7C528.9 123.7 529.1 124.3 529.2 127.3C529.3 130.6 529.6 131 531.2 129.7C540.1 122.3 552.3 118.2 565.7 118.2C588.2 118.2 607.6 129.3 619.2 148.7C623.6 156.1 626.2 163.3 628.2 173.5C630.5 185.3 629 200.4 624.4 212C621.1 220.2 616.5 227.3 610.7 233.1C598.9 244.9 586.8 250.2 569.2 251.2C562.4 251.7 553.4 250.5 547.2 248.5C542 246.8 536.2 243.9 532.9 241.4C530.8 239.8 530.3 239.6 529.9 240.1C529.8 240.2 529.8 252.3 529.7 267L529.6 293.6L529.2 294.6C528.6 295.8 527.7 296.8 526.7 297.3L526 297.6L510.9 297.7C499.3 297.7 495.6 297.7 495 297.5ZM1112 251.5C1087.5 250.1 1069.4 240.2 1058.3 222C1046.8 203.2 1045.1 178.6 1053.9 157.8C1058 148 1063.4 140.5 1071.3 133.6C1092.3 115.1 1130 112.7 1155.1 128.2C1169.3 137 1178.3 149.4 1181.6 164.7C1182.9 170.7 1183.5 183.4 1182.7 189.7C1182.4 192.3 1181 194.2 1178.9 195.1L1178 195.5L1135.8 195.6L1093.6 195.7L1092.5 196.2C1091.1 196.9 1089.9 198 1089.5 198.9C1088.7 200.6 1090.3 205 1093.2 208.8C1100.3 218.3 1113.1 222.8 1126.4 220.5C1134.4 219.1 1139.4 216.4 1145 210.5C1147.3 208 1148.1 207.5 1149.6 207.5C1151.1 207.5 1151.7 207.9 1155.7 211.1C1157.7 212.7 1160.5 214.9 1162 216C1163.5 217.2 1165.6 218.8 1166.6 219.7C1167.6 220.5 1169.1 221.6 1169.8 222.2C1172.5 224.2 1173 224.9 1173 226.7C1173 228.3 1172.8 228.6 1170.1 231.7C1161.5 241.5 1154 246.1 1141.6 249.3C1134.4 251.2 1121.9 252.1 1112 251.5ZM895.3 251C877.9 249.1 863.8 241.3 853.7 228C846.5 218.6 841.4 204.7 840.3 191.7C838.7 173.8 843.3 155.5 852.8 141.7C862.9 127.2 876.8 119.3 895.3 117.7C899.8 117.3 907.5 117.4 910 118C910.1 118 911.2 118.2 912.4 118.3C920.9 119.4 930.5 123.3 935.6 127.7C937.4 129.3 938.1 129.5 938.3 128.7C938.4 128.5 938.4 116.1 938.4 101.1L938.5 74L939.1 72.8C939.8 71.3 941.1 70.2 942.3 69.8C943.9 69.3 973.2 69.5 974.2 70C975.1 70.4 976.1 71.4 976.6 72.3C977.1 73.4 977.1 72.3 977 161.4L977 245L976.5 245.9C975.9 246.9 974.7 247.9 973.6 248.3C972.5 248.6 942.9 248.5 941.9 248.1C940 247.2 939.3 245.9 939.2 242.3C939.1 238.4 939 238.3 936.3 240.5C929.3 246 921.6 249.2 911.5 250.7C907.7 251.2 899.1 251.4 895.3 251ZM399.9 250.6C399.4 250.6 397.5 250.5 395.8 250.4C381.8 249.6 367.3 245.3 356.8 238.9C350.7 235.2 341 227.1 339.8 224.7C339.2 223.5 339.2 221.5 339.7 220.4C340.1 219.7 359.5 200.1 361.3 198.7C362.2 197.9 363.1 197.7 364.5 197.8C365.8 197.9 366.5 198.3 369.5 200.7C379.3 208.5 388.4 212.6 400 214.4C414.1 216.6 425.7 214.4 432 208.5C437.8 203.1 437.3 193.2 431 188.1C426.7 184.6 421.3 182.7 404.7 178.6C402.2 178 397.9 177 395.2 176.3C392.5 175.6 389.7 174.9 389 174.7C378.5 172.3 367 167.8 360.9 163.7C350.7 156.9 345.3 147.6 343.6 134C343.3 131.1 343.4 122.8 343.8 119.8C345.9 104.3 353.7 92.3 367 84.3C382.3 75.1 408.4 72.2 429.3 77.4C430 77.6 431.2 77.9 432 78.1C439.8 79.8 449.4 83.8 456.1 88.1C463.1 92.5 466.4 95.2 466.8 97C467.6 99.5 467.5 99.6 459.3 108C455.5 111.9 451 116.5 449.4 118.2C444.4 123.4 443.5 123.6 438.9 120.2C432.8 115.9 427.9 113.4 422.3 111.8C401.2 106 383.4 112 383.5 124.8C383.5 129.9 385.7 133.4 390.6 136.2C394.6 138.5 398.2 139.6 416.9 143.8C422.6 145.1 426.6 146.1 431.4 147.3C442.6 150.2 452 153.7 458.4 157.5C468.9 163.8 474.5 173.5 476.4 189.2C476.7 191.9 476.6 201.6 476.2 204.2C474.6 215 471.7 222.6 466.5 229.5C463 234.2 455.5 239.9 448.3 243.2C440.9 246.6 429.8 249.4 420.1 250.3C417.6 250.6 402.5 250.8 399.9 250.6ZM649.4 248.4C647 248.2 645.3 246.8 644.7 244.6C644.6 244.2 644.5 230.4 644.5 199.4C644.5 154.1 644.5 153.4 643.9 149.7C643.5 147.8 643.5 147 643.4 138.4C643.3 125.1 643.4 124.3 645.5 122.4C647.1 121 646 121 663.6 121.1C680.7 121.2 679.7 121.1 681.1 122.4C682.6 123.7 682.8 124.3 682.9 128.3C683.1 133.6 682.9 244.2 682.7 244.9C682.3 246.4 680.8 247.9 679.6 248.2C678.8 248.4 651.1 248.6 649.4 248.4ZM806.9 248.4L793.1 248.3L792.4 247.9C791.3 247.4 790.4 246.5 789.9 245.5L789.5 244.7L789.4 207.8C789.3 183.6 789.2 170.7 789.1 170.1C786.9 158.5 778.5 152 765.5 152C754 152 744.2 158.6 741.4 168.3C740.4 171.9 740.5 169 740.4 208.4C740.3 242.8 740.3 244.5 740 245.3C739.6 246.3 738.5 247.5 737.5 248L736.6 248.4L721.3 248.4C706.6 248.4 705.9 248.4 705.3 248.1C704.3 247.6 703.1 246.5 702.7 245.6L702.3 244.8L702.2 198.1C702.1 172.3 702 145.4 702 138.2L702 125.2L702.3 124.4C703 122.9 704.4 121.7 705.8 121.3C706.5 121.1 736.2 121.2 736.9 121.4C737.7 121.6 739.3 123 739.6 123.9C739.9 124.5 740 125.3 740 128.9C740.1 134.3 740.3 134.6 742.3 132.8C756.9 119 778 114.4 796.7 121.1C803.8 123.6 808.6 126.7 813.8 131.9C821.5 139.6 826.1 150.2 827.4 163.6C827.6 166 827.6 244.2 827.4 245C827 246.3 825.9 247.5 824.7 248.1C823.6 248.5 823.4 248.5 806.9 248.4ZM999.4 248.1C998.2 247.5 997.3 246.7 996.8 245.6L996.3 244.7L996.2 159.2C996.2 81.9 996.2 73.7 996.5 72.9C996.8 71.7 998.2 70.2 999.5 69.8C1000.8 69.4 1029.5 69.3 1030.9 69.8C1032 70.1 1033.2 71.1 1033.8 72.3L1034.3 73.2L1034.3 159L1034.3 244.8L1033.9 245.6C1033.4 246.5 1032.3 247.6 1031.3 248.1C1030.2 248.6 1000.5 248.6 999.4 248.1ZM915.8 215.6C924 214 930.5 209.8 935.1 203.3C942.3 193.2 942.3 176.4 935.2 165.7C925.2 150.7 903.4 148.1 889.6 160.3C884 165.2 880.7 171.7 879.3 180.1C877.3 193 884.4 207.1 896 212.9C898.6 214.2 901.8 215.1 906.9 216C908.6 216.3 913.3 216 915.8 215.6ZM565.7 214.4C572.9 212.6 578.4 208.9 583.2 202.8C592.4 191.2 591.4 173.5 580.9 162.7C567.2 148.5 546.4 149.3 534.7 164.5C528.5 172.5 526.7 184.1 529.9 194.9C532.7 204.3 540.8 211.7 551.2 214.5C554.1 215.2 553.9 215.2 558.9 215.2L563.1 215.1L565.7 214.4ZM1144.3 170.4C1145.9 169.6 1144.2 163.5 1141 158.8C1133.5 147.6 1116.8 143.6 1103.8 149.8C1097.1 153 1093 157.2 1090.2 163.8C1088.5 167.8 1088.3 170.3 1089.8 170.6C1090.6 170.8 1144 170.6 1144.3 170.4ZM659.2 107.5C652.2 106.4 645.5 101 642.7 94.4C641.4 91.2 641.1 89.7 641.1 85.6L641.1 81.8L641.8 79.8C642.5 77.2 643.3 75.3 644.3 73.6C652.5 59.8 672.1 59 681.8 72.2C686.5 78.5 687.4 87.5 684 95.1C680.2 103.9 669.8 109.1 659.2 107.5ZM99.9 79.4C99.4 78.9 99.4 76.3 99.4 45.5L99.5 17L99.8 15.7C101.6 9.4 106.6 4.5 113 2.8C114.9 2.3 127.2 2 130.1 2.4C135.6 3.1 141.1 7.1 143.6 12.3C145.7 16.5 145.6 15.1 145.6 45.9L145.5 67.9L145.2 68.4C144.5 69.4 142.9 69.9 138.5 70.8C137.8 71 135.4 71.5 133.2 72.1C131.1 72.6 128.3 73.3 127.1 73.6C125.9 73.8 121.3 75 116.8 76.1C101.6 79.7 100.5 80 99.9 79.4Z"/>
<path fill="#7664F9" d="M12.8 178.4C9.5 175.5 5 164.3 3.6 155.6C2 145.6 4.2 135.4 9.8 126.9C14.6 119.7 23.1 114.1 32.1 112.2C36.2 111.3 37.7 110.9 42.5 109.8C45.2 109.1 47.9 108.5 48.5 108.3C50.3 107.9 54.2 107 57.8 106.1C59.6 105.6 62 105.1 63 104.8C65.6 104.2 67.7 103.7 77.1 101.4C89.7 98.3 91.8 97.8 94 97.3C95.2 97.1 98.2 96.4 100.6 95.7C109.1 93.5 111 93.1 113.9 92.5C117.4 91.7 121 90.9 125.4 89.7C131 88.3 135 87.3 138 86.7C142.8 85.7 148.6 84.3 152.3 83.2C155.5 82.3 162.8 80.4 164.2 80.2C165.6 79.9 169.9 78.9 180.1 76.3C193.7 72.9 200 71.4 205.6 70.1C208 69.5 212.4 68.4 215.4 67.6C218.3 66.8 222.6 65.8 224.7 65.3C226.9 64.8 229.8 64.1 231.3 63.8C235.3 62.9 236.7 63 238.4 64.3C239.9 65.4 240.7 67.7 240.4 69.5C240.3 70.2 240.1 71.6 239.9 72.8C238.9 79.1 235.3 87.6 231 94.1C223.5 105.2 211.2 115 200.2 118.6C198.7 119 195.4 120.1 193 120.9C190.5 121.7 187.6 122.6 186.6 122.9C185.6 123.2 184 123.7 183 124C181.1 124.5 177.2 125.7 173.5 126.8C172.4 127.2 169 128.3 165.9 129.2C162.9 130.2 159.9 131.2 159.4 131.3C158.8 131.5 156.9 132 155.1 132.6C153.4 133.1 150 134.2 147.5 134.9C145.1 135.7 140.2 137.2 136.7 138.3C130.5 140.3 129 140.8 125.2 141.9C122 142.8 119.7 143.6 113.9 145.5C108.3 147.3 103.7 148.8 101.6 149.3C99.7 149.9 95.1 151.3 91.6 152.4C89.7 153 86.9 153.9 85.4 154.4C83.9 154.9 80.9 155.8 78.7 156.5C73 158.3 69.4 159.4 65.2 160.7C63.1 161.3 60.2 162.2 58.7 162.7C57.2 163.1 54.3 164 52.3 164.7C50.3 165.3 47.4 166.2 45.8 166.7C44.2 167.1 41.9 167.8 40.6 168.2C39.3 168.6 36.6 169.4 34.5 170C32.5 170.7 29.7 171.5 28.3 171.9C23.4 173.2 19.9 175 15.8 177.9C14.2 179.1 13.7 179.2 12.8 178.4Z"/>
<path fill="#378BFD" d="M24 239.9C16 239 9.6 233.3 7.5 225.2C6.5 221 6.5 215.3 7.6 210.9C9.5 203.4 15.2 195.7 21.8 191.8C26.4 189 28.1 188.4 39.7 185C44.6 183.5 49.4 182 56.5 179.7C58.8 179 62.8 177.8 65.4 177C68 176.2 71.2 175.2 72.6 174.7C74 174.3 76.7 173.4 78.7 172.8C80.7 172.2 83.5 171.3 85 170.8C90.9 168.9 92.6 168.4 96.1 167.3C98.1 166.7 101.7 165.6 104 164.8C106.4 164 109.6 163 111.1 162.6C115.2 161.3 121 159.5 122.9 158.8C124.6 158.2 128.1 157.1 134.1 155.3C136.1 154.7 139 153.8 140.4 153.4C141.8 153 144.6 152 146.7 151.4C148.8 150.7 151.4 149.9 152.5 149.6C153.7 149.2 156.1 148.5 157.9 147.9C159.7 147.4 162.8 146.4 164.8 145.8C166.8 145.2 169.7 144.3 171.2 143.8C172.7 143.3 176 142.3 178.5 141.5C182.7 140.3 191.2 137.7 195.6 136.2C196.7 135.9 198.8 135.3 200.2 134.8C203.2 133.9 208.6 132.2 214 130.6C217.3 129.5 219.8 128.8 226.1 126.9C232.2 125.1 237.4 125.9 242.5 129.3C254.8 137.5 253.8 156.8 240.7 167.6C237.2 170.5 235.5 171.3 227.8 173.7C221.4 175.8 220.4 176.1 210.2 179.5C206.4 180.8 200.5 182.8 197 183.9C188.9 186.5 173.8 191.5 167.5 193.6C157.5 196.9 120.9 209.2 119 209.9C118 210.2 116.1 210.9 114.8 211.4C113.5 211.8 109.1 213.3 105 214.6C101 216 96.3 217.5 94.7 218.1C93.1 218.7 87.4 220.6 82 222.4C76.6 224.2 68.5 226.9 64 228.5C59.5 230 54.2 231.7 52.3 232.3C48.8 233.4 41.1 236 35.9 237.8C30.1 239.8 27.4 240.3 24 239.9Z"/>
<path fill="#3CCCE8" d="M55.3 295.1C48.8 293.8 45 291.2 42.4 286.4C39.5 281.3 38.8 275.4 40.1 268.6C42.2 258.3 50.4 249 60.1 245.8C61.1 245.5 64.1 244.6 66.7 243.7C75 241.1 98 233.4 106.2 230.5C108.2 229.8 112.8 228.3 116.5 227C120.2 225.8 127.5 223.4 132.5 221.7C137.6 219.9 143.7 217.9 146 217.1C148.4 216.4 155 214.2 160.7 212.2C166.4 210.3 173.2 208 175.7 207.2C178.2 206.4 185.8 203.9 192.5 201.7C202.5 198.3 205.1 197.5 206.3 197.4C218.6 195.9 229.2 208.4 226.9 221.7C225 232.1 216.9 241.5 207.2 244.5C202.3 246 165.9 258.5 159.4 260.9C157.6 261.6 155.6 262.3 154.9 262.5C153.4 262.9 150.1 264.1 144.1 266.2C139.8 267.8 138.8 268.1 133.1 270.3C131.3 271 126.8 272.5 123.1 273.8C119.5 275 115.1 276.5 113.4 277.1C111.7 277.8 109.7 278.5 109 278.7C108.2 279 105.9 279.8 103.7 280.6C101.6 281.3 95.9 283.3 91 284.9C86.2 286.5 80.6 288.5 78.5 289.2C76.5 290 74.7 290.6 74.7 290.6C74.6 290.6 71.9 291.5 68.6 292.6C65.3 293.8 62 294.8 61.2 295C60 295.2 56.2 295.3 55.3 295.1Z"/>
</svg>
